<svg width="521" height="478" viewBox="0 0 521 478" fill="none" xmlns="http://www.w3.org/2000/svg">
<path d="M482.977 425.297H457.224V425.64H482.977V425.297Z" fill="#C670A5"/>
<path d="M227.151 433.405H101.433V433.748H227.151V433.405Z" fill="#C670A5"/>
<path d="M192.367 314.777H181.054H173.592L194.5 332.505H198.339H201.761L196.876 324.906L211.128 332.505H214.563H218.616L192.367 314.777Z" fill="white"/>
<path d="M44.1025 332.505H51.5908L68.2182 323.641L60.958 332.505H68.2182L89.1266 314.777H70.352L44.1025 332.505Z" fill="white"/>
<path d="M64.3667 332.505L81.6651 314.777H70.352L44.1025 332.505H48.1553L68.2182 321.209L60.958 332.505H64.3667Z" fill="#8F72B4"/>
<path d="M5.8689 332.505V416.584H258.729V332.505H5.8689ZM254.595 365.488H51.5908V338.003H254.595V365.488Z" fill="white"/>
<path d="M46.0618 332.505V416.584H258.729V332.505H46.0618ZM254.595 365.488H51.5909V338.003H254.595V365.488Z" fill="#C670A5"/>
<path d="M254.595 337.961H217.583V365.433H254.595V337.961Z" fill="white"/>
<path d="M105.19 351.69H51.5908V365.433H105.19V351.69Z" fill="white"/>
<path d="M143.035 357.27H108.559V365.433H143.035V357.27Z" fill="white"/>
<path d="M191.655 348.736H151.006V365.433H191.655V348.736Z" fill="white"/>
<path d="M91.9448 371.411L90.9651 374.696H77.7732L76.7936 371.411H51.5908V407.898H117.148V371.411H91.9448Z" fill="white"/>
<path d="M160.575 371.411L159.595 374.696H146.417L145.437 371.411H120.221V407.898H185.791V371.411H160.575Z" fill="white"/>
<path d="M229.218 371.411L228.238 374.696H215.06L214.067 371.411H188.864V407.898H254.421V371.411H229.218Z" fill="white"/>
<path d="M214.188 203.488H40.0094C37.393 203.488 35.2721 205.66 35.2721 208.34V312.276C35.2721 314.955 37.393 317.127 40.0094 317.127H214.188C216.804 317.127 218.925 314.955 218.925 312.276V208.34C218.925 205.66 216.804 203.488 214.188 203.488Z" fill="white"/>
<path d="M218.509 203.488H44.3306C41.7143 203.488 39.5934 205.66 39.5934 208.34V312.276C39.5934 314.955 41.7143 317.127 44.3306 317.127H218.509C221.125 317.127 223.246 314.955 223.246 312.276V208.34C223.246 205.66 221.125 203.488 218.509 203.488Z" fill="#BABCE9"/>
<path d="M217.838 311.603V209.013H44.9748V311.603H217.838Z" fill="#8F72B4"/>
<path d="M430.881 78.0813C444.491 74.5574 452.734 60.4027 449.292 46.4661C445.851 32.5294 432.029 24.0882 418.42 27.6121C404.81 31.1361 396.567 45.2907 400.008 59.2274C403.45 73.164 417.272 81.6052 430.881 78.0813Z" fill="white"/>
<path d="M445.649 57.8831C448.39 45.9901 441.198 34.0734 429.584 31.2664C417.97 28.4594 406.333 35.8251 403.592 47.7181C400.851 59.6111 408.044 71.5278 419.658 74.3348C431.271 77.1418 442.908 69.7761 445.649 57.8831Z" fill="#8F72B4"/>
<path d="M423.634 37.641V53.1016L413.622 47.3021" fill="#8F72B4"/>
<path d="M423.633 54.4758C423.398 54.4775 423.167 54.4159 422.962 54.2972L412.951 48.4565C412.644 48.2752 412.42 47.977 412.327 47.6268C412.234 47.2767 412.28 46.9031 412.455 46.5875C412.629 46.2708 412.92 46.038 413.262 45.9401C413.604 45.8422 413.97 45.8872 414.28 46.0653L422.332 50.7103V37.5997C422.332 37.2353 422.473 36.8857 422.725 36.628C422.976 36.3703 423.318 36.2255 423.674 36.2255C424.03 36.2255 424.371 36.3703 424.623 36.628C424.874 36.8857 425.016 37.2353 425.016 37.5997V53.0603C425.016 53.4248 424.874 53.7744 424.623 54.0321C424.371 54.2898 424.03 54.4346 423.674 54.4346L423.633 54.4758Z" fill="white"/>
<path d="M78.4846 52.9092C78.4846 52.9092 77.2499 44.6635 83.1547 39.3176C89.0595 33.9717 88.5227 30.8521 86.8452 30.4398C85.1677 30.0275 83.611 35.3322 81.0209 36.7889C81.0209 36.7889 80.927 29.2304 83.5707 26.4406C86.2145 23.6509 87.5967 16.4771 85.0738 16.3534C82.5508 16.2298 82.3093 20.6137 81.7993 23.7196C81.0858 26.3834 79.9672 28.9156 78.4846 31.2231C78.4846 31.2231 77.9343 24.4479 76.23 21.6032C74.5257 18.7584 79.075 12.4505 77.317 9.66072C75.559 6.87094 72.459 12.1894 72.714 18.1537C72.9689 24.1181 76.8742 30.5222 75.9616 36.734C75.9616 36.734 74.2438 32.3638 72.7005 31.9652C71.1572 31.5667 69.6139 28.667 68.5672 27.595C67.5204 26.5231 66.2455 30.2336 68.5672 33.6831C70.8888 37.1325 76.8742 46.3676 75.9616 53.8299L78.4846 52.9092Z" fill="#BABCE9"/>
<path d="M82.014 49.1437L83.933 61.5121C84.0751 62.4129 84.0241 63.3345 83.7838 64.2131C83.5435 65.0917 83.1195 65.9063 82.5412 66.6004C81.963 67.2946 81.2442 67.8516 80.4349 68.2331C79.6255 68.6146 78.7448 68.8112 77.8538 68.8095H75.8005C74.9091 68.8109 74.028 68.6141 73.2181 68.2328C72.4082 67.8514 71.6888 67.2946 71.1095 66.6008C70.5303 65.907 70.1049 65.0927 69.8629 64.2141C69.6209 63.3356 69.568 62.4137 69.7078 61.5121L71.6403 49.1437H82.014Z" fill="#BABCE9"/>
<path d="M52.7986 71.4481L189.307 71.4481V64.2607L52.7986 64.2607V71.4481Z" fill="white"/>
<path d="M177.014 64.2744H183.026V37.8059H177.014V64.2744Z" fill="#C670A5"/>
<path d="M147.933 64.2744H153.945V37.8059H147.933V64.2744Z" fill="#C670A5"/>
<path d="M110.536 63.2276L116.46 64.2735L120.853 38.176L114.928 37.1302L110.536 63.2276Z" fill="#C670A5"/>
<path d="M169.553 64.2744H175.565V41.2828H169.553V64.2744Z" fill="#C670A5"/>
<path d="M155.743 64.2744H161.756V41.2828H155.743V64.2744Z" fill="#C670A5"/>
<path d="M120.838 64.2744H126.85V41.2828H120.838V64.2744Z" fill="#C670A5"/>
<path d="M135.177 62.9243L141.046 64.26L145.917 41.816L140.048 40.4803L135.177 62.9243Z" fill="#C670A5"/>
<path d="M164.359 64.2744H167.365V36.4866H164.359V64.2744Z" fill="#C670A5"/>
<path d="M128.595 64.2744H131.601V36.4866H128.595V64.2744Z" fill="#C670A5"/>
<path d="M189.307 117.885H52.7986V125.072H189.307V117.885Z" fill="white"/>
<path d="M65.0914 91.4164H59.0792V117.899H65.0914V91.4164Z" fill="#C670A5"/>
<path d="M94.1725 91.4164H88.1603V117.899H94.1725V91.4164Z" fill="#C670A5"/>
<path d="M127.186 90.7461L121.261 91.792L125.654 117.889L131.578 116.844L127.186 90.7461Z" fill="#C670A5"/>
<path d="M72.5529 94.907H66.5407V117.899H72.5529V94.907Z" fill="#C670A5"/>
<path d="M86.3755 94.907H80.3633V117.899H86.3755V94.907Z" fill="#C670A5"/>
<path d="M121.254 94.907H115.242V117.899H121.254V94.907Z" fill="#C670A5"/>
<path d="M102.08 94.0999L96.2111 95.4356L101.082 117.88L106.951 116.544L102.08 94.0999Z" fill="#C670A5"/>
<path d="M77.7464 90.0971H74.7404V117.885H77.7464V90.0971Z" fill="#C670A5"/>
<path d="M113.524 90.0971H110.518V117.885H113.524V90.0971Z" fill="#C670A5"/>
<path d="M176.222 96.9409H146.913V117.651H176.222V96.9409Z" fill="#C670A5"/>
<path d="M260.5 478C404.205 478 520.7 471.035 520.7 462.443C520.7 453.851 404.205 446.886 260.5 446.886C116.795 446.886 0.299561 453.851 0.299561 462.443C0.299561 471.035 116.795 478 260.5 478Z" fill="white"/>
<path d="M46.518 411.458C46.518 411.045 45.176 370.229 38.721 363.839C32.521 357.682 25.3815 363.619 25.0729 363.839L24.214 362.781C24.2945 362.712 32.5881 355.786 39.647 362.781C46.4778 369.57 47.8064 409.63 47.86 411.334L46.518 411.458Z" fill="#7690D8"/>
<path d="M47.1219 419.511C46.9341 417.504 42.6799 370.394 60.032 349.986L61.0519 350.893C44.0353 370.834 48.37 418.879 48.4639 419.36L47.1219 419.511Z" fill="#7690D8"/>
<path d="M46.7596 414.357L45.4176 414.261C45.4176 413.711 48.8128 359.139 36.1578 347.238L37.0703 346.221C50.1817 358.575 46.9072 412.076 46.7596 414.357Z" fill="#7690D8"/>
<path d="M48.4639 414.316H47.1219C47.1219 412.804 47.538 377.307 57.4419 371.494C58.3957 370.863 59.483 370.475 60.613 370.363C61.743 370.25 62.8828 370.417 63.9372 370.848C69.9494 373.404 72.9152 384.302 73.036 384.755L71.694 385.126C71.694 385.017 68.7818 374.407 63.387 372.126C62.5154 371.763 61.5703 371.625 60.6345 371.724C59.6987 371.822 58.8007 372.153 58.019 372.689C48.8263 378.09 48.4639 414.014 48.4639 414.316Z" fill="#7690D8"/>
<path d="M44.5856 414.344L43.2436 414.261C43.2436 413.986 44.7198 386.35 37.4595 376.633C35.7149 374.325 33.8496 373.211 31.8768 373.363C27.1798 373.692 23.2075 380.784 23.1807 380.852L21.9997 380.179C22.1876 379.863 26.3612 372.373 31.7829 371.933C34.2253 371.755 36.4933 373.033 38.4929 375.754C46.102 385.924 44.6527 413.189 44.5856 414.344Z" fill="#7690D8"/>
<path d="M45.8605 418.137C45.6726 415.388 41.0964 352.171 49.1752 340.93L50.2488 341.754C42.4652 352.542 47.1622 417.339 47.2025 418.027L45.8605 418.137Z" fill="#7690D8"/>
<path d="M66.0173 377.403C66.0173 377.403 61.1995 379.231 62.6354 383.532C64.0714 387.834 79.3299 394.911 79.3299 394.911C79.3299 394.911 85.7178 388.906 79.8533 379.148C73.9888 369.391 66.1515 374.325 66.0173 377.403Z" fill="#7690D8"/>
<path opacity="0.2" d="M66.0173 377.403C66.0173 377.403 61.1995 379.231 62.6354 383.532C64.0714 387.834 79.3299 394.911 79.3299 394.911C79.3299 394.911 85.7178 388.906 79.8533 379.148C73.9888 369.391 66.1515 374.325 66.0173 377.403Z" fill="white"/>
<path d="M45.0418 369.212C45.0418 369.212 50.1817 368.992 50.4098 373.528C50.638 378.063 39.3383 390.651 39.3383 390.651C39.3383 390.651 31.179 387.641 32.9236 376.317C34.6682 364.993 43.7535 366.423 45.0418 369.212Z" fill="#7690D8"/>
<path opacity="0.2" d="M45.0418 369.212C45.0418 369.212 50.1817 368.992 50.4098 373.528C50.638 378.063 39.3383 390.651 39.3383 390.651C39.3383 390.651 31.179 387.641 32.9236 376.317C34.6682 364.993 43.7535 366.423 45.0418 369.212Z" fill="white"/>
<path d="M40.6803 347.499C40.6803 347.499 44.1158 347.114 43.834 344.984C43.5522 342.854 30.508 337.343 22.8183 346.234C22.8183 346.234 27.7434 354.906 34.8963 355.016C42.0492 355.126 40.6803 347.499 40.6803 347.499Z" fill="#7690D8"/>
<path opacity="0.2" d="M40.6803 347.499C40.6803 347.499 44.1158 347.114 43.834 344.984C43.5522 342.854 30.508 337.343 22.8183 346.234C22.8183 346.234 27.7434 354.906 34.8963 355.016C42.0492 355.126 40.6803 347.499 40.6803 347.499Z" fill="white"/>
<path d="M47.1219 342.304C47.1219 342.304 44.0219 343.843 43.0959 341.878C42.1699 339.913 50.4635 328.135 61.5887 331.557C61.5887 331.557 61.8839 341.589 55.8986 345.547C49.9133 349.505 47.1219 342.304 47.1219 342.304Z" fill="#7690D8"/>
<path opacity="0.2" d="M47.1219 342.304C47.1219 342.304 44.0219 343.843 43.0959 341.878C42.1699 339.913 50.4635 328.135 61.5887 331.557C61.5887 331.557 61.8839 341.589 55.8986 345.547C49.9133 349.505 47.1219 342.304 47.1219 342.304Z" fill="white"/>
<path d="M30.8435 375.671C30.8435 375.671 33.2054 373.72 30.6556 372.758C28.1058 371.796 15.5715 372.085 15.4507 384.783C15.4507 384.783 30.0383 387.27 31.8366 382.433C33.6348 377.595 30.8435 375.671 30.8435 375.671Z" fill="#7690D8"/>
<path opacity="0.2" d="M30.8435 375.671C30.8435 375.671 33.2054 373.72 30.6556 372.758C28.1058 371.796 15.5715 372.085 15.4507 384.783C15.4507 384.783 30.0383 387.27 31.8366 382.433C33.6348 377.595 30.8435 375.671 30.8435 375.671Z" fill="white"/>
<path d="M60.542 347.183C60.542 347.183 58.1666 345.217 60.7298 344.269C63.2931 343.321 75.8005 343.582 75.9347 356.294C75.9347 356.294 61.3472 358.768 59.5355 353.93C57.7238 349.093 60.542 347.183 60.542 347.183Z" fill="#7690D8"/>
<path opacity="0.2" d="M60.542 347.183C60.542 347.183 58.1666 345.217 60.7298 344.269C63.2931 343.321 75.8005 343.582 75.9347 356.294C75.9347 356.294 61.3472 358.768 59.5355 353.93C57.7238 349.093 60.542 347.183 60.542 347.183Z" fill="white"/>
<path d="M52.8791 357.407C52.8791 357.407 52.6644 355.03 54.5432 355.964C56.422 356.899 62.9441 364.114 56.1804 370.958C56.1804 370.958 47.0682 364.086 48.7055 360.444C50.3427 356.803 52.8791 357.407 52.8791 357.407Z" fill="#7690D8"/>
<path opacity="0.2" d="M52.8791 357.407C52.8791 357.407 52.6644 355.03 54.5432 355.964C56.422 356.899 62.9441 364.114 56.1804 370.958C56.1804 370.958 47.0682 364.086 48.7055 360.444C50.3427 356.803 52.8791 357.407 52.8791 357.407Z" fill="white"/>
<path d="M28.7231 360.802C28.7231 360.802 30.1456 358.905 28.0655 358.672C25.9854 358.438 16.7256 360.967 18.9399 370.449C18.9399 370.449 30.2396 369.583 30.7227 365.639C31.2058 361.695 28.7231 360.802 28.7231 360.802Z" fill="#7690D8"/>
<path opacity="0.2" d="M28.7231 360.802C28.7231 360.802 30.1456 358.905 28.0655 358.672C25.9854 358.438 16.7256 360.967 18.9399 370.449C18.9399 370.449 30.2396 369.583 30.7227 365.639C31.2058 361.695 28.7231 360.802 28.7231 360.802Z" fill="white"/>
<path d="M66.9298 449.525H28.1326L23.9456 406.029H71.1034L66.9298 449.525Z" fill="#7690D8"/>
<path opacity="0.5" d="M66.9298 449.525H28.1326L23.9456 406.029H71.1034L66.9298 449.525Z" fill="white"/>
<path d="M73.1836 401.233H21.8789V410.825H73.1836V401.233Z" fill="#7690D8"/>
<path opacity="0.2" d="M73.1836 401.233H21.8789V410.825H73.1836V401.233Z" fill="white"/>
<path d="M381.307 449.525L381.387 449.017L383.655 421.833H393.331L386.42 449.525" fill="#8F72B4"/>
<path d="M470.845 449.525L470.764 449.017L468.483 421.833H458.821L465.732 449.525" fill="#8F72B4"/>
<path d="M368.558 449.525L368.638 449.017L373.04 421.833H382.702L373.671 449.525" fill="#8F72B4"/>
<path d="M483.594 449.525L483.5 449.017L479.112 421.833H469.449L478.481 449.525" fill="#8F72B4"/>
<g opacity="0.2">
<path d="M368.558 449.525L368.638 449.017L373.04 421.833H382.702L373.671 449.525" fill="white"/>
<path d="M483.594 449.525L483.5 449.017L479.112 421.833H469.449L478.481 449.525" fill="white"/>
</g>
<path d="M484.319 259.119H367.846C364.897 259.119 362.505 261.568 362.505 264.589V422.424C362.505 425.445 364.897 427.894 367.846 427.894H484.319C487.269 427.894 489.66 425.445 489.66 422.424V264.589C489.66 261.568 487.269 259.119 484.319 259.119Z" fill="#7690D8"/>
<path opacity="0.4" d="M484.319 259.119H367.846C364.897 259.119 362.505 261.568 362.505 264.589V422.424C362.505 425.445 364.897 427.894 367.846 427.894H484.319C487.269 427.894 489.66 425.445 489.66 422.424V264.589C489.66 261.568 487.269 259.119 484.319 259.119Z" fill="white"/>
<path opacity="0.5" d="M484.466 295.922H367.685V356.844H484.466V295.922Z" fill="white"/>
<path opacity="0.5" d="M484.466 360.898H367.685V421.82H484.466V360.898Z" fill="white"/>
<path opacity="0.5" d="M484.466 265.18H367.685V291.854H484.466V265.18Z" fill="white"/>
<path opacity="0.5" d="M435.631 269.619H416.521C415.948 269.616 415.387 269.45 414.901 269.139C414.416 268.828 414.024 268.385 413.77 267.86L412.495 265.18H439.657L438.315 267.86C438.07 268.378 437.689 268.817 437.215 269.127C436.742 269.438 436.193 269.608 435.631 269.619Z" fill="#8F72B4"/>
<path opacity="0.5" d="M435.631 300.347H416.521C415.947 300.348 415.385 300.183 414.899 299.872C414.413 299.561 414.021 299.116 413.77 298.588L412.495 295.922H439.657L438.315 298.588C438.072 299.109 437.692 299.549 437.218 299.86C436.744 300.171 436.194 300.34 435.631 300.347Z" fill="#8F72B4"/>
<path opacity="0.5" d="M435.631 365.337H416.521C415.947 365.337 415.385 365.172 414.899 364.861C414.413 364.55 414.021 364.106 413.77 363.578L412.495 360.898H439.657L438.315 363.578C438.072 364.098 437.692 364.539 437.218 364.849C436.744 365.16 436.194 365.329 435.631 365.337Z" fill="#8F72B4"/>
<path d="M460.042 240.498L470.134 259.119H457.573L460.042 240.498Z" fill="#7690D8"/>
<path opacity="0.2" d="M460.042 240.498L470.134 259.119H457.573L460.042 240.498Z" fill="#8F72B4"/>
<path d="M463.41 259.119H439.657L447.092 227.607H470.845L463.41 259.119Z" fill="#7690D8"/>
<path opacity="0.5" d="M442.931 256.618L449.185 230.108H467.571L461.317 256.618H442.931Z" fill="white"/>
<path d="M393.908 244.772L388.017 259.119H403.772L393.908 244.772Z" fill="#7690D8"/>
<path d="M426.076 259.119H395.908L388.822 236.732H419.004L426.076 259.119Z" fill="#7690D8"/>
<path opacity="0.2" d="M426.076 259.119H395.908L388.822 236.732H419.004L426.076 259.119Z" fill="white"/>
<path opacity="0.5" d="M397.572 255.89L392.526 239.962H417.339L422.372 255.89H397.572Z" fill="white"/>
<path d="M291.675 90.7704H98.8695C91.1613 90.7704 84.9127 97.1694 84.9127 105.063V455.544C84.9127 463.438 91.1613 469.837 98.8695 469.837H291.675C299.383 469.837 305.631 463.438 305.631 455.544V105.063C305.631 97.1694 299.383 90.7704 291.675 90.7704Z" fill="#8F72B4"/>
<path d="M298.183 104.39V455.489C298.184 456.222 298.041 456.947 297.763 457.622C297.486 458.297 297.08 458.909 296.569 459.421C296.057 459.933 295.451 460.335 294.786 460.604C294.121 460.873 293.41 461.003 292.695 460.986H97.2591C96.6087 460.996 95.9632 460.871 95.3612 460.619C94.7592 460.366 94.2131 459.992 93.7557 459.519C93.2983 459.045 92.939 458.482 92.6993 457.863C92.4596 457.244 92.3445 456.581 92.3608 455.915V103.936C92.3356 103.348 92.4246 102.76 92.6227 102.208C92.8207 101.655 93.1238 101.148 93.5144 100.716C93.9051 100.284 94.3755 99.9355 94.8985 99.6909C95.4215 99.4463 95.9866 99.3104 96.5612 99.291H145.423C146.104 99.3051 146.766 99.5254 147.325 99.924C147.884 100.323 148.315 100.882 148.564 101.531L150.59 106.643C150.838 107.292 151.269 107.85 151.829 108.247C152.388 108.643 153.05 108.86 153.73 108.87H236.934C237.612 108.866 238.274 108.655 238.834 108.263C239.393 107.871 239.826 107.317 240.075 106.671L242.101 101.545C242.348 100.893 242.778 100.331 243.337 99.9297C243.896 99.5285 244.559 99.3062 245.241 99.291H293.406C294.696 99.3305 295.919 99.8868 296.812 100.84C297.706 101.794 298.198 103.068 298.183 104.39Z" fill="#7690D8"/>
<path opacity="0.3" d="M298.183 104.39V455.489C298.184 456.222 298.041 456.947 297.763 457.622C297.486 458.297 297.08 458.909 296.569 459.421C296.057 459.933 295.451 460.335 294.786 460.604C294.121 460.873 293.41 461.003 292.695 460.986H97.2591C96.6087 460.996 95.9632 460.871 95.3612 460.619C94.7592 460.366 94.2131 459.992 93.7557 459.519C93.2983 459.045 92.939 458.482 92.6993 457.863C92.4596 457.244 92.3445 456.581 92.3608 455.915V103.936C92.3356 103.348 92.4246 102.76 92.6227 102.208C92.8207 101.655 93.1238 101.148 93.5144 100.716C93.9051 100.284 94.3755 99.9355 94.8985 99.6909C95.4215 99.4463 95.9866 99.3104 96.5612 99.291H145.423C146.104 99.3051 146.766 99.5254 147.325 99.924C147.884 100.323 148.315 100.882 148.564 101.531L150.59 106.643C150.838 107.292 151.269 107.85 151.829 108.247C152.388 108.643 153.05 108.86 153.73 108.87H236.934C237.612 108.866 238.274 108.655 238.834 108.263C239.393 107.871 239.826 107.317 240.075 106.671L242.101 101.545C242.348 100.893 242.778 100.331 243.337 99.9297C243.896 99.5285 244.559 99.3062 245.241 99.291H293.406C294.696 99.3305 295.919 99.8868 296.812 100.84C297.706 101.794 298.198 103.068 298.183 104.39Z" fill="#8F72B4"/>
<path opacity="0.6" d="M298.183 122.942H92.3607V435.191H298.183V122.942Z" fill="white"/>
<path opacity="0.6" d="M115.054 114.545H117.59V111.068H115.054V114.545Z" fill="white"/>
<path opacity="0.6" d="M110.907 114.545H113.444V109.914H110.907V114.545Z" fill="white"/>
<path opacity="0.6" d="M106.76 114.545H109.297V108.76H106.76V114.545Z" fill="white"/>
<path opacity="0.6" d="M102.614 114.545H105.15V107.605H102.614V114.545Z" fill="white"/>
<path opacity="0.6" d="M274.886 109.804H273.383V113.281H274.886V109.804Z" fill="white"/>
<path opacity="0.6" d="M275.92 114.545H287.93V108.54H275.92V114.545Z" fill="white"/>
<path opacity="0.6" d="M195.238 99.7857C195.238 100.359 195.072 100.92 194.761 101.397C194.45 101.874 194.008 102.245 193.49 102.465C192.973 102.684 192.404 102.742 191.854 102.63C191.305 102.518 190.801 102.242 190.405 101.836C190.009 101.431 189.739 100.914 189.63 100.351C189.52 99.7889 189.576 99.2059 189.791 98.676C190.005 98.1462 190.368 97.6933 190.834 97.3747C191.299 97.056 191.847 96.886 192.407 96.886C192.779 96.8842 193.148 96.9579 193.493 97.103C193.837 97.2481 194.15 97.4616 194.413 97.7312C194.676 98.0009 194.885 98.3212 195.027 98.6739C195.168 99.0265 195.24 99.4044 195.238 99.7857Z" fill="white"/>
<path opacity="0.6" d="M200.955 99.7857C200.955 100.153 200.849 100.511 200.65 100.816C200.451 101.122 200.168 101.359 199.837 101.5C199.506 101.64 199.142 101.677 198.79 101.605C198.439 101.534 198.116 101.357 197.863 101.098C197.609 100.838 197.437 100.508 197.367 100.148C197.297 99.7878 197.333 99.4147 197.47 99.0757C197.607 98.7367 197.839 98.447 198.137 98.2431C198.435 98.0392 198.785 97.9304 199.144 97.9304C199.624 97.9304 200.085 98.1259 200.425 98.4738C200.765 98.8218 200.955 99.2937 200.955 99.7857Z" fill="white"/>
<path d="M298.183 122.942H92.3607V158.989H298.183V122.942Z" fill="#7690D8"/>
<path d="M289.447 143.914V141.165H287.058C286.905 140.467 286.632 139.801 286.253 139.2L287.944 137.468L285.998 135.476L284.307 137.207C283.718 136.826 283.069 136.551 282.388 136.396V133.95H279.704V136.41C279.024 136.568 278.375 136.842 277.785 137.221L276.094 135.489L274.188 137.455L275.879 139.186C275.5 139.788 275.228 140.453 275.074 141.151H272.685V143.9H275.074C275.23 144.593 275.503 145.254 275.879 145.851L274.188 147.583L276.094 149.548L277.785 147.817C278.378 148.194 279.025 148.473 279.704 148.641V151.074H282.388V148.641C283.067 148.475 283.716 148.197 284.307 147.817L285.998 149.548L287.904 147.583L286.213 145.851C286.589 145.254 286.862 144.593 287.018 143.9L289.447 143.914ZM281.073 145.082C280.576 145.082 280.09 144.931 279.677 144.648C279.264 144.365 278.943 143.963 278.753 143.492C278.564 143.022 278.515 142.504 278.613 142.005C278.71 141.507 278.951 141.049 279.303 140.69C279.655 140.331 280.104 140.087 280.592 139.99C281.079 139.892 281.584 139.945 282.043 140.142C282.501 140.338 282.892 140.67 283.166 141.094C283.44 141.519 283.585 142.017 283.582 142.526C283.582 142.862 283.517 143.196 283.391 143.507C283.265 143.818 283.08 144.1 282.847 144.338C282.613 144.576 282.337 144.764 282.032 144.891C281.728 145.019 281.402 145.084 281.073 145.082Z" fill="white"/>
<path d="M110.156 134.953L101.097 143.763H103.902V150.084H116.409V143.763H119.201L110.156 134.953Z" fill="white"/>
<path opacity="0.4" d="M233.512 219.513C233.52 227.261 231.284 234.838 227.085 241.285C222.887 247.732 216.915 252.758 209.927 255.729C202.938 258.699 195.246 259.48 187.823 257.972C180.401 256.464 173.583 252.736 168.23 247.259C162.878 241.781 159.232 234.801 157.755 227.202C156.277 219.602 157.034 211.724 159.93 204.565C162.825 197.406 167.73 191.288 174.022 186.984C180.314 182.68 187.712 180.384 195.279 180.387C200.3 180.378 205.273 181.384 209.914 183.346C214.555 185.309 218.772 188.19 222.324 191.825C225.876 195.459 228.692 199.776 230.612 204.527C232.532 209.278 233.518 214.371 233.512 219.513Z" fill="#8F72B4"/>
<path opacity="0.8" d="M224.185 245.157C220.595 249.4 216.156 252.804 211.168 255.136C206.181 257.469 200.762 258.676 195.279 258.676C189.796 258.676 184.377 257.469 179.389 255.136C174.402 252.804 169.962 249.4 166.372 245.157C167.757 240.071 170.397 235.436 174.038 231.699C177.678 227.961 182.197 225.245 187.16 223.814C184.506 222.027 182.486 219.411 181.4 216.354C180.314 213.298 180.219 209.964 181.13 206.848C182.041 203.733 183.909 201.001 186.457 199.059C189.005 197.116 192.096 196.067 195.272 196.067C198.448 196.067 201.54 197.116 204.087 199.059C206.635 201.001 208.503 203.733 209.414 206.848C210.325 209.964 210.23 213.298 209.144 216.354C208.058 219.411 206.038 222.027 203.384 223.814C208.347 225.247 212.867 227.963 216.51 231.7C220.153 235.438 222.796 240.071 224.185 245.157Z" fill="white"/>
<g opacity="0.5">
<path d="M123.482 281.918V282.633H119.389V276.861H123.415V277.576H120.248V279.335H123.079V280.036H120.248V281.905L123.482 281.918Z" fill="#8F72B4"/>
<path d="M124.233 280.022H126.407V280.709H124.233V280.022Z" fill="#8F72B4"/>
<path d="M134.674 280.118V282.633H133.909V280.214C133.909 279.349 133.506 278.936 132.809 278.936C132.622 278.917 132.434 278.942 132.258 279.009C132.082 279.076 131.923 279.183 131.794 279.323C131.665 279.462 131.568 279.629 131.511 279.812C131.454 279.995 131.439 280.189 131.467 280.379V282.633H130.702V280.214C130.702 279.349 130.299 278.936 129.588 278.936C129.401 278.917 129.213 278.942 129.037 279.009C128.861 279.076 128.703 279.183 128.573 279.323C128.444 279.462 128.347 279.629 128.29 279.812C128.234 279.995 128.218 280.189 128.246 280.379V282.633H127.642V278.263H128.38V278.922C128.547 278.689 128.768 278.502 129.024 278.38C129.279 278.257 129.561 278.203 129.843 278.222C130.14 278.199 130.438 278.264 130.702 278.407C130.965 278.55 131.184 278.767 131.332 279.032C131.519 278.769 131.766 278.557 132.051 278.416C132.337 278.274 132.653 278.208 132.97 278.222C133.21 278.209 133.449 278.251 133.671 278.344C133.894 278.438 134.093 278.58 134.256 278.761C134.419 278.942 134.54 279.157 134.613 279.392C134.685 279.626 134.706 279.874 134.674 280.118Z" fill="#8F72B4"/>
<path d="M139.492 279.994V282.633H138.754V282.083C138.597 282.292 138.393 282.459 138.159 282.569C137.925 282.68 137.669 282.73 137.412 282.715C136.445 282.715 135.828 282.179 135.828 281.424C135.828 280.668 136.271 280.146 137.546 280.146H138.767V279.994C138.767 279.321 138.391 278.936 137.626 278.936C137.141 278.934 136.668 279.099 136.284 279.403L135.962 278.813C136.469 278.425 137.089 278.227 137.72 278.249C138.821 278.222 139.492 278.799 139.492 279.994ZM138.713 281.3V280.709H137.519C136.754 280.709 136.539 281.025 136.539 281.396C136.539 281.767 136.888 282.097 137.479 282.097C137.74 282.114 138 282.046 138.222 281.903C138.443 281.76 138.615 281.549 138.713 281.3Z" fill="#8F72B4"/>
<path d="M140.78 276.916C140.78 276.846 140.794 276.777 140.82 276.713C140.847 276.649 140.885 276.591 140.934 276.542C140.983 276.493 141.041 276.455 141.104 276.43C141.168 276.404 141.235 276.392 141.304 276.394C141.404 276.396 141.501 276.429 141.583 276.488C141.665 276.547 141.728 276.63 141.765 276.726C141.802 276.821 141.81 276.926 141.789 277.026C141.767 277.126 141.718 277.218 141.646 277.29C141.574 277.362 141.483 277.41 141.385 277.429C141.286 277.448 141.184 277.437 141.092 277.397C141 277.357 140.921 277.29 140.865 277.205C140.81 277.119 140.78 277.019 140.78 276.916ZM140.928 278.29H141.693V282.661H140.928V278.29Z" fill="#8F72B4"/>
<path d="M143.169 276.586H143.934V282.702H143.169V276.586Z" fill="#8F72B4"/>
</g>
<g opacity="0.8">
<path d="M261.909 311.204H128.635C125.959 311.204 123.392 310.115 121.499 308.177C119.606 306.239 118.543 303.611 118.543 300.87C118.543 298.129 119.606 295.5 121.499 293.562C123.392 291.624 125.959 290.535 128.635 290.535H261.909C264.586 290.535 267.152 291.624 269.045 293.562C270.938 295.5 272.001 298.129 272.001 300.87C272.001 303.611 270.938 306.239 269.045 308.177C267.152 310.115 264.586 311.204 261.909 311.204Z" fill="white"/>
</g>
<g opacity="0.5">
<path d="M123.938 329.729C123.938 330.98 123.052 331.736 121.59 331.736H120.248V333.481H119.442V327.709H121.643C123.052 327.709 123.938 328.465 123.938 329.729ZM123.133 329.729C123.133 328.905 122.596 328.424 121.563 328.424H120.221V331.021H121.563C122.596 331.021 123.133 330.54 123.133 329.729Z" fill="#8F72B4"/>
<path d="M128.353 330.843V333.481H127.642V332.932C127.486 333.142 127.282 333.309 127.048 333.419C126.814 333.53 126.557 333.579 126.3 333.564C125.334 333.564 124.716 333.028 124.716 332.272C124.716 331.516 125.159 330.994 126.434 330.994H127.642V330.843C127.642 330.169 127.266 329.784 126.501 329.784C126.015 329.782 125.543 329.947 125.159 330.252L124.837 329.661C125.349 329.274 125.973 329.075 126.609 329.097C127.642 329.07 128.353 329.647 128.353 330.843ZM127.575 332.148V331.557H126.38C125.615 331.557 125.401 331.873 125.401 332.244C125.401 332.615 125.763 332.945 126.34 332.945C126.613 332.98 126.889 332.92 127.125 332.776C127.36 332.631 127.542 332.41 127.642 332.148H127.575Z" fill="#8F72B4"/>
<path d="M129.252 333.014L129.574 332.396C130.016 332.694 130.535 332.852 131.064 332.849C131.775 332.849 132.084 332.629 132.084 332.258C132.084 331.269 129.4 332.121 129.4 330.375C129.4 329.606 130.084 329.07 131.171 329.07C131.715 329.061 132.252 329.199 132.728 329.468L132.393 330.087C132.026 329.854 131.602 329.735 131.171 329.743C130.487 329.743 130.165 330.004 130.165 330.348C130.165 331.379 132.849 330.54 132.849 332.231C132.849 333.028 132.138 333.536 131.01 333.536C130.386 333.551 129.772 333.368 129.252 333.014Z" fill="#8F72B4"/>
<path d="M133.278 333.014L133.6 332.396C134.048 332.692 134.57 332.85 135.103 332.849C135.815 332.849 136.11 332.629 136.11 332.258C136.11 331.269 133.426 332.121 133.426 330.375C133.426 329.606 134.11 329.07 135.211 329.07C135.755 329.062 136.291 329.2 136.768 329.468L136.432 330.087C136.06 329.856 135.632 329.737 135.197 329.743C134.526 329.743 134.191 330.004 134.191 330.348C134.191 331.379 136.875 330.54 136.875 332.231C136.875 333.028 136.164 333.536 135.023 333.536C134.403 333.546 133.795 333.364 133.278 333.014Z" fill="#8F72B4"/>
<path d="M144.229 329.111L142.632 333.481H141.894L140.659 330.183L139.411 333.495H138.673L137.036 329.111H137.761L139.009 332.588L140.351 329.111H141.062L142.404 332.602L143.665 329.111H144.229Z" fill="#8F72B4"/>
<path d="M144.497 331.296C144.492 330.847 144.617 330.405 144.858 330.029C145.098 329.652 145.442 329.358 145.846 329.182C146.25 329.006 146.696 328.957 147.127 329.041C147.558 329.126 147.955 329.339 148.268 329.655C148.58 329.971 148.794 330.375 148.881 330.816C148.969 331.257 148.927 331.714 148.76 332.13C148.593 332.546 148.309 332.902 147.945 333.152C147.58 333.402 147.151 333.536 146.712 333.536C146.42 333.55 146.128 333.501 145.855 333.394C145.583 333.286 145.334 333.122 145.127 332.912C144.919 332.701 144.755 332.449 144.647 332.171C144.539 331.893 144.488 331.595 144.497 331.296ZM148.148 331.296C148.148 331.103 148.111 330.912 148.038 330.733C147.966 330.555 147.86 330.393 147.727 330.256C147.594 330.12 147.436 330.011 147.261 329.938C147.087 329.864 146.9 329.826 146.712 329.826C146.523 329.826 146.336 329.864 146.162 329.938C145.988 330.011 145.83 330.12 145.696 330.256C145.563 330.393 145.457 330.555 145.385 330.733C145.313 330.912 145.276 331.103 145.276 331.296C145.276 331.489 145.313 331.68 145.385 331.859C145.457 332.037 145.563 332.199 145.696 332.336C145.83 332.472 145.988 332.581 146.162 332.655C146.336 332.729 146.523 332.767 146.712 332.767C146.9 332.767 147.087 332.729 147.261 332.655C147.436 332.581 147.594 332.472 147.727 332.336C147.86 332.199 147.966 332.037 148.038 331.859C148.111 331.68 148.148 331.489 148.148 331.296Z" fill="#8F72B4"/>
<path d="M152.294 329.07V329.839H152.12C151.934 329.839 151.751 329.878 151.58 329.953C151.41 330.029 151.257 330.14 151.131 330.28C151.005 330.419 150.908 330.584 150.848 330.764C150.787 330.943 150.763 331.134 150.778 331.324V333.495H150V329.125H150.738V329.853C150.9 329.586 151.131 329.372 151.406 329.233C151.682 329.095 151.989 329.038 152.294 329.07Z" fill="#8F72B4"/>
<path d="M157.233 327.434V333.55H156.495V332.863C156.318 333.105 156.086 333.299 155.82 333.428C155.553 333.557 155.26 333.618 154.965 333.605C154.416 333.561 153.904 333.306 153.53 332.892C153.156 332.478 152.949 331.935 152.949 331.372C152.949 330.808 153.156 330.265 153.53 329.851C153.904 329.437 154.416 329.183 154.965 329.138C155.25 329.127 155.533 329.185 155.792 329.307C156.051 329.428 156.278 329.611 156.455 329.839V327.434H157.233ZM156.468 331.365C156.455 331.077 156.36 330.8 156.194 330.567C156.029 330.335 155.8 330.157 155.537 330.056C155.273 329.955 154.987 329.936 154.713 330C154.439 330.064 154.19 330.21 153.995 330.418C153.801 330.626 153.671 330.888 153.621 331.171C153.571 331.454 153.603 331.746 153.713 332.011C153.824 332.276 154.007 332.501 154.242 332.66C154.476 332.819 154.751 332.904 155.032 332.904C155.237 332.922 155.443 332.891 155.635 332.815C155.826 332.738 155.998 332.618 156.137 332.462C156.276 332.307 156.378 332.121 156.435 331.919C156.492 331.716 156.504 331.503 156.468 331.296V331.365Z" fill="#8F72B4"/>
</g>
<g opacity="0.8">
<path d="M261.909 362.052H128.635C125.959 362.052 123.392 360.964 121.499 359.026C119.606 357.087 118.543 354.459 118.543 351.718C118.543 348.977 119.606 346.348 121.499 344.41C123.392 342.472 125.959 341.383 128.635 341.383H261.909C264.586 341.383 267.152 342.472 269.045 344.41C270.938 346.348 272.001 348.977 272.001 351.718C272.001 354.459 270.938 357.087 269.045 359.026C267.152 360.964 264.586 362.052 261.909 362.052Z" fill="white"/>
</g>
<path d="M228.359 404.655H162.185C160.86 404.655 159.547 404.388 158.323 403.868C157.099 403.349 155.986 402.588 155.049 401.628C154.112 400.668 153.369 399.529 152.861 398.275C152.354 397.021 152.093 395.678 152.093 394.32C152.093 392.963 152.354 391.619 152.861 390.366C153.369 389.112 154.112 387.972 155.049 387.013C155.986 386.053 157.099 385.292 158.323 384.773C159.547 384.253 160.86 383.986 162.185 383.986H228.359C231.036 383.986 233.602 385.075 235.495 387.013C237.388 388.951 238.451 391.58 238.451 394.32C238.451 397.061 237.388 399.69 235.495 401.628C233.602 403.566 231.036 404.655 228.359 404.655Z" fill="#7690D8"/>
<path d="M179.481 390.515C179.445 390.21 179.298 389.973 179.042 389.805C178.785 389.636 178.47 389.552 178.096 389.552C177.824 389.552 177.585 389.596 177.38 389.684C177.177 389.773 177.019 389.894 176.905 390.048C176.792 390.203 176.736 390.379 176.736 390.575C176.736 390.74 176.775 390.881 176.853 391C176.934 391.116 177.036 391.213 177.16 391.292C177.285 391.368 177.415 391.431 177.552 391.481C177.688 391.529 177.814 391.569 177.928 391.599L178.554 391.767C178.715 391.809 178.893 391.868 179.09 391.942C179.288 392.016 179.478 392.117 179.659 392.246C179.841 392.372 179.992 392.535 180.11 392.733C180.229 392.932 180.288 393.176 180.288 393.465C180.288 393.798 180.2 394.099 180.026 394.368C179.853 394.637 179.6 394.85 179.267 395.009C178.936 395.167 178.534 395.247 178.06 395.247C177.619 395.247 177.237 395.175 176.914 395.033C176.593 394.891 176.34 394.692 176.155 394.437C175.972 394.182 175.869 393.886 175.845 393.549H176.616C176.636 393.782 176.714 393.974 176.85 394.127C176.989 394.277 177.163 394.39 177.374 394.464C177.587 394.536 177.816 394.572 178.06 394.572C178.345 394.572 178.601 394.526 178.828 394.434C179.055 394.34 179.234 394.209 179.367 394.043C179.499 393.874 179.565 393.678 179.565 393.453C179.565 393.248 179.508 393.082 179.394 392.953C179.279 392.825 179.129 392.72 178.942 392.64C178.756 392.56 178.554 392.49 178.337 392.429L177.579 392.213C177.097 392.074 176.716 391.877 176.435 391.62C176.154 391.363 176.014 391.027 176.014 390.611C176.014 390.266 176.107 389.965 176.294 389.708C176.482 389.45 176.735 389.249 177.052 389.106C177.371 388.962 177.727 388.89 178.121 388.89C178.518 388.89 178.871 388.961 179.18 389.103C179.489 389.244 179.734 389.436 179.914 389.681C180.097 389.926 180.193 390.204 180.203 390.515H179.481ZM181.419 395.138V390.515H182.129V395.138H181.419ZM181.78 389.744C181.641 389.744 181.522 389.697 181.422 389.603C181.323 389.509 181.274 389.395 181.274 389.263C181.274 389.13 181.323 389.017 181.422 388.923C181.522 388.828 181.641 388.781 181.78 388.781C181.918 388.781 182.037 388.828 182.135 388.923C182.235 389.017 182.286 389.13 182.286 389.263C182.286 389.395 182.235 389.509 182.135 389.603C182.037 389.697 181.918 389.744 181.78 389.744ZM185.296 396.968C184.953 396.968 184.658 396.924 184.411 396.836C184.165 396.75 183.959 396.635 183.794 396.493C183.632 396.352 183.502 396.202 183.406 396.041L183.972 395.644C184.036 395.728 184.117 395.825 184.216 395.933C184.314 396.043 184.448 396.139 184.619 396.219C184.792 396.301 185.017 396.342 185.296 396.342C185.67 396.342 185.978 396.252 186.22 396.071C186.463 395.891 186.585 395.608 186.585 395.223V394.284H186.524C186.472 394.368 186.398 394.472 186.302 394.597C186.207 394.719 186.071 394.828 185.892 394.925C185.716 395.019 185.477 395.066 185.176 395.066C184.803 395.066 184.468 394.978 184.171 394.801C183.876 394.625 183.642 394.368 183.469 394.031C183.299 393.694 183.213 393.284 183.213 392.803C183.213 392.329 183.297 391.917 183.463 391.566C183.63 391.212 183.862 390.939 184.159 390.747C184.456 390.552 184.799 390.455 185.188 390.455C185.489 390.455 185.728 390.505 185.904 390.605C186.083 390.704 186.219 390.816 186.314 390.942C186.41 391.067 186.484 391.169 186.536 391.249H186.609V390.515H187.295V395.271C187.295 395.668 187.205 395.991 187.024 396.24C186.845 396.491 186.605 396.674 186.302 396.791C186.001 396.909 185.666 396.968 185.296 396.968ZM185.272 394.428C185.557 394.428 185.798 394.363 185.995 394.232C186.191 394.102 186.341 393.914 186.443 393.669C186.545 393.425 186.597 393.132 186.597 392.791C186.597 392.457 186.546 392.163 186.446 391.909C186.346 391.654 186.197 391.454 186.001 391.31C185.804 391.165 185.561 391.093 185.272 391.093C184.971 391.093 184.72 391.169 184.52 391.322C184.321 391.474 184.172 391.679 184.071 391.936C183.973 392.193 183.924 392.478 183.924 392.791C183.924 393.112 183.974 393.396 184.074 393.642C184.177 393.887 184.327 394.08 184.526 394.22C184.726 394.359 184.975 394.428 185.272 394.428ZM189.306 392.357V395.138H188.595V390.515H189.281V391.237H189.342C189.45 391.003 189.615 390.814 189.835 390.672C190.056 390.527 190.341 390.455 190.69 390.455C191.003 390.455 191.277 390.519 191.512 390.647C191.747 390.774 191.929 390.967 192.06 391.225C192.19 391.482 192.255 391.807 192.255 392.201V395.138H191.545V392.249C191.545 391.886 191.451 391.603 191.262 391.4C191.073 391.195 190.815 391.093 190.485 391.093C190.259 391.093 190.056 391.142 189.877 391.24C189.701 391.339 189.561 391.482 189.459 391.671C189.357 391.859 189.306 392.088 189.306 392.357ZM195.937 395.138V390.515H196.648V395.138H195.937ZM196.298 389.744C196.16 389.744 196.041 389.697 195.94 389.603C195.842 389.509 195.793 389.395 195.793 389.263C195.793 389.13 195.842 389.017 195.94 388.923C196.041 388.828 196.16 388.781 196.298 388.781C196.437 388.781 196.555 388.828 196.654 388.923C196.754 389.017 196.804 389.13 196.804 389.263C196.804 389.395 196.754 389.509 196.654 389.603C196.555 389.697 196.437 389.744 196.298 389.744ZM198.659 392.357V395.138H197.949V390.515H198.635V391.237H198.695C198.804 391.003 198.968 390.814 199.189 390.672C199.41 390.527 199.694 390.455 200.044 390.455C200.357 390.455 200.631 390.519 200.865 390.647C201.1 390.774 201.283 390.967 201.413 391.225C201.544 391.482 201.609 391.807 201.609 392.201V395.138H200.898V392.249C200.898 391.886 200.804 391.603 200.616 391.4C200.427 391.195 200.168 391.093 199.839 391.093C199.612 391.093 199.41 391.142 199.231 391.24C199.054 391.339 198.915 391.482 198.813 391.671C198.71 391.859 198.659 392.088 198.659 392.357Z" fill="white"/>
<path d="M435.094 144.546L377.469 143.996C376.154 143.978 374.9 143.427 373.982 142.463C373.064 141.5 372.556 140.203 372.57 138.856L373.121 121.059C373.128 120.394 373.263 119.736 373.518 119.123C373.773 118.51 374.144 117.955 374.609 117.49C375.074 117.024 375.624 116.656 376.227 116.408C376.831 116.16 377.476 116.036 378.126 116.043L435.832 116.607C437.147 116.625 438.401 117.176 439.319 118.14C440.237 119.103 440.745 120.4 440.731 121.747L440.18 139.543C440.174 140.216 440.036 140.88 439.775 141.497C439.515 142.115 439.137 142.673 438.663 143.138C438.189 143.604 437.63 143.968 437.017 144.21C436.404 144.452 435.751 144.566 435.094 144.546Z" fill="#7690D8"/>
<path d="M405.436 140.052C405.436 140.052 398.135 156.543 382.166 161.587C382.166 161.587 391.023 156.502 390.567 139.172L405.436 140.052Z" fill="#7690D8"/>
<path d="M387.52 130.088L388.862 130.858L388.245 131.916L386.903 131.064V132.631H385.722V131.064L384.38 131.916L383.776 130.858L385.118 130.088L383.776 129.319L384.38 128.261L385.722 129.113V127.532H386.903V129.113L388.245 128.261L388.862 129.319L387.52 130.088Z" fill="white"/>
<path d="M395.76 130.088L397.102 130.858L396.485 131.916L395.143 131.064V132.631H393.962V131.064L392.62 131.916L392.016 130.913L393.358 130.143L392.016 129.374L392.633 128.316L393.975 129.168V127.587H395.156V129.168L396.498 128.316L397.116 129.374L395.76 130.088Z" fill="white"/>
<path d="M404.013 130.088L405.355 130.858L404.738 131.916L403.396 131.064V132.631H402.202V131.064L400.86 131.916L400.256 130.858L401.598 130.088L400.256 129.319L400.86 128.261L402.202 129.113V127.532H403.396V129.113L404.738 128.261L405.355 129.319L404.013 130.088Z" fill="white"/>
<path d="M412.253 130.088L413.595 130.858L412.978 131.916L411.636 131.064V132.631H410.455V131.064L409.113 131.916L408.509 130.858L409.851 130.088L408.509 129.319L409.113 128.261L410.455 129.113V127.532H411.636V129.113L412.978 128.261L413.595 129.319L412.253 130.088Z" fill="white"/>
<path d="M420.493 130.088L421.835 130.858L421.218 131.916L419.876 131.064V132.631H418.695V131.064L417.353 131.916L416.736 130.858L418.078 130.088L416.736 129.319L417.353 128.261L418.695 129.113V127.532H419.876V129.113L421.218 128.261L421.835 129.319L420.493 130.088Z" fill="white"/>
<path d="M428.746 130.088L430.088 130.858L429.471 131.916L428.129 131.064V132.631H426.908V131.064L425.566 131.916L424.962 130.858L426.304 130.088L424.962 129.319L425.566 128.261L426.908 129.113V127.532H428.102V129.113L429.444 128.261L430.062 129.319L428.746 130.088Z" fill="white"/>
<path d="M343.892 173.516C351.568 174.739 359.016 198.953 362.25 201.001C365.485 203.049 362.707 178.326 362.707 178.326L368.853 177.487C368.853 177.487 376.127 214.758 365.511 214.483C357.459 214.277 347.797 200.438 345.381 193.388L343.892 173.516Z" fill="#FFDCB4"/>
<path opacity="0.1" d="M365.511 214.387C360.613 214.263 355.124 209.109 351.045 203.502C348.713 200.387 346.824 196.95 345.435 193.291L344.643 183.122L343.892 173.502C351.568 174.725 359.016 198.94 362.25 200.987C365.485 203.035 362.707 178.312 362.707 178.312L368.853 177.473C368.853 177.473 376.127 214.661 365.511 214.387Z" fill="#8F72B4"/>
<path opacity="0.2" d="M351.045 203.502C348.713 200.387 346.824 196.95 345.435 193.291L344.643 183.122C344.643 183.122 353.017 191.752 351.045 203.502Z" fill="#8F72B4"/>
<path d="M315.629 123.437C315.629 123.437 301.954 123.272 302.612 142.526C303.269 161.779 316.421 162.04 312.006 167.606C315.928 169.309 320.145 170.187 324.406 170.187C328.667 170.187 332.884 169.309 336.806 167.606C336.806 167.606 334.377 166.63 335.531 163.099C336.685 159.567 343.02 154.509 343.583 147.061C344.147 139.612 329.774 121.513 315.629 123.437Z" fill="#8F72B4"/>
<path d="M329.143 160.295C329.143 160.295 346.589 156.983 343.677 139.997C341.288 126.076 334.941 121.609 329.143 119.616C326.646 118.755 323.943 118.753 321.445 119.612C318.947 120.47 316.791 122.142 315.307 124.371C315.307 124.371 303.471 120.936 305.524 140.863C307.577 160.79 320.434 169.393 329.143 160.295Z" fill="#8F72B4"/>
<path d="M360.949 444.921L353.192 440.853L356.01 428.98L358.614 418.109L368.383 421.38L364.451 433.845L360.949 444.921Z" fill="#FFDCB4"/>
<path d="M351.031 438.984C351.488 438.105 361.901 444.289 361.901 444.289C361.901 444.289 365.162 454.555 370.839 459.406C376.516 464.257 371 466.346 363.82 462.691L346.052 453.62C341.02 450.996 346.307 448.165 351.031 438.984Z" fill="#8F72B4"/>
<path d="M365.431 449.511C364.303 448.577 363.289 447.506 362.411 446.323C362.404 446.291 362.404 446.258 362.411 446.227C362.405 446.186 362.405 446.144 362.411 446.103C362.405 446.076 362.405 446.048 362.411 446.021C362.422 445.971 362.451 445.926 362.492 445.897C362.586 445.801 364.733 443.698 366.518 443.822C366.78 443.84 367.036 443.916 367.268 444.044C367.499 444.172 367.701 444.349 367.86 444.564C368.029 444.725 368.145 444.936 368.191 445.168C368.237 445.4 368.21 445.64 368.115 445.856C367.793 446.419 366.773 446.598 365.646 446.639C366.528 446.909 367.319 447.428 367.927 448.137C368.029 448.285 368.1 448.453 368.135 448.63C368.169 448.808 368.167 448.991 368.128 449.168C367.981 449.91 367.592 450.143 367.296 450.212C366.955 450.233 366.613 450.182 366.292 450.061C365.971 449.941 365.678 449.753 365.431 449.511ZM363.485 446.639C364.733 448.137 366.411 449.759 367.122 449.58C367.189 449.58 367.377 449.58 367.471 449.044C367.491 448.949 367.49 448.85 367.469 448.756C367.448 448.661 367.408 448.572 367.35 448.494C366.8 447.642 364.814 446.996 363.485 446.639ZM367.055 444.701C366.863 444.559 366.634 444.478 366.397 444.468C365.282 444.588 364.234 445.07 363.404 445.842C365.297 446.034 367.256 445.952 367.524 445.471C367.605 445.32 367.43 445.059 367.31 444.907C367.235 444.827 367.149 444.757 367.055 444.701Z" fill="#7690D8"/>
<path opacity="0.2" d="M364.357 434.092L355.93 429.213L358.56 418.219L368.37 421.435L364.357 434.092Z" fill="#8F72B4"/>
<path d="M347.26 454.843H338.39L335.853 443.162L333.545 432.457L343.919 430.835L345.69 443.547L347.26 454.843Z" fill="#FFDCB4"/>
<path d="M335.464 454.486C335.464 453.483 347.542 454.266 347.542 454.266C347.542 454.266 354.936 461.962 362.116 463.694C369.296 465.425 365.283 469.837 357.258 469.837H337.356C331.626 469.837 335.222 464.862 335.464 454.486Z" fill="#8F72B4"/>
<path d="M353.809 457.413C352.075 457.192 350.391 456.667 348.83 455.86L348.723 455.778V455.709C348.696 455.624 348.696 455.533 348.723 455.448C348.723 455.338 349.783 452.466 351.407 451.765C351.651 451.649 351.917 451.589 352.185 451.589C352.454 451.589 352.72 451.649 352.964 451.765C353.514 452.04 353.769 452.384 353.755 452.81C353.755 453.455 352.856 454.101 351.877 454.637C352.781 454.47 353.713 454.575 354.561 454.94C354.716 455.027 354.853 455.145 354.963 455.286C355.074 455.428 355.156 455.59 355.205 455.764C355.304 455.996 355.329 456.254 355.276 456.501C355.223 456.748 355.094 456.971 354.91 457.139C354.585 457.359 354.196 457.456 353.809 457.413ZM349.931 455.654C351.702 456.41 353.957 457.097 354.467 456.616C354.467 456.616 354.668 456.451 354.547 455.97C354.525 455.879 354.484 455.793 354.426 455.719C354.368 455.646 354.295 455.586 354.212 455.544C353.339 455.022 351.286 455.338 349.931 455.654ZM352.078 452.26C351.911 452.263 351.747 452.301 351.595 452.37C350.652 453.005 349.929 453.928 349.528 455.008C351.313 454.321 353.031 453.359 353.058 452.81C353.058 452.631 352.803 452.48 352.642 452.397C352.467 452.306 352.274 452.259 352.078 452.26Z" fill="#7690D8"/>
<path opacity="0.2" d="M345.717 443.808L335.88 443.396L333.558 432.566L343.932 430.89L345.717 443.808Z" fill="#8F72B4"/>
<path d="M304.008 241.047L325.788 237.474L345.529 233.352L350.897 266.334C350.897 266.334 378.69 307.562 385.427 335.927C392.164 364.292 366.894 430.093 366.894 430.093L355.285 424.829C355.285 424.829 363.337 361.544 363.149 353.944C363.029 348.997 347.18 326.184 336.095 310.806C335.773 314.667 339.369 353.161 339.369 353.161L347.193 437.541H332.565C282.267 277.589 304.008 241.047 304.008 241.047Z" fill="#8F72B4"/>
<path opacity="0.6" d="M332.565 437.486H347.139L339.316 353.106C339.316 353.106 335.746 314.351 336.041 310.751C338.229 313.788 340.604 317.1 343.006 320.522C352.762 334.416 363.002 349.904 363.136 353.875C363.324 361.489 355.272 424.774 355.272 424.774L366.88 430.038C366.88 430.038 392.15 364.21 385.413 335.859C378.676 307.507 350.884 266.279 350.884 266.279L345.516 233.297L325.775 237.419L303.994 240.992C303.994 240.992 282.267 277.589 332.565 437.486Z" fill="white"/>
<path d="M354.628 419.456L371.765 425.503L367.94 431.522L353.863 426.368L354.628 419.456Z" fill="#7690D8"/>
<path d="M330.472 435.466L348.804 432.896L347.891 439.905L332.753 441.857L330.472 435.466Z" fill="#7690D8"/>
<path opacity="0.2" d="M336.041 310.751C338.229 313.788 340.604 317.1 343.006 320.522C339.168 300.155 334.645 280.324 334.645 280.324C334.072 290.488 334.54 300.686 336.041 310.751Z" fill="#8F72B4"/>
<path d="M345.14 234.643L305.403 237.461C305.403 237.461 304.866 215.665 301.699 204.327C301.27 202.801 300.8 201.207 300.277 199.503C299.539 197.112 298.693 194.542 297.727 191.738C297.499 191.079 296.922 189.43 296.224 187.519C295.672 185.995 295.562 184.339 295.907 182.752C296.253 181.165 297.038 179.714 298.17 178.573C299.272 177.443 300.67 176.665 302.196 176.333C305.121 175.673 308.007 175.055 309.577 174.807C315.53 173.84 321.536 173.257 327.56 173.062C332.659 173.062 338.296 173.364 341.516 173.598L344.308 173.818C344.308 173.818 345.569 174.107 346.374 181.679C347.099 188.798 346.75 208.752 345.14 234.643Z" fill="#7690D8"/>
<path d="M326.258 181.761C316.233 179.906 313.415 175.343 313.415 175.343C320.125 169.489 315.347 158.495 315.347 158.495L327.425 161.449C327.055 163.165 326.808 164.906 326.687 166.658C326.218 174.203 329.546 174.45 329.546 174.45C331.384 178.587 326.258 181.761 326.258 181.761Z" fill="#FFDCB4"/>
<path opacity="0.2" d="M327.331 161.381C326.961 163.096 326.714 164.837 326.593 166.589C320.809 164.899 315.307 158.426 315.307 158.426L327.331 161.381Z" fill="#8F72B4"/>
<path d="M326.446 126.131C336.981 127.106 339.866 133.194 339.665 144.395C339.41 158.385 335.531 167.991 322.608 163.799C305.054 158.124 308.933 124.523 326.446 126.131Z" fill="#FFDCB4"/>
<path d="M332.968 143.158C333.672 144.852 334.573 146.453 335.652 147.927C335.303 148.342 334.849 148.651 334.341 148.821C333.832 148.99 333.288 149.014 332.767 148.889L332.968 143.158Z" fill="#D58745"/>
<path d="M326.526 141.687C326.526 142.567 325.949 143.254 325.372 143.227C324.795 143.199 324.379 142.429 324.433 141.536C324.487 140.643 325.01 139.969 325.587 139.997C326.164 140.024 326.58 140.794 326.526 141.687Z" fill="#8F72B4"/>
<path d="M325.332 140.024L327.278 139.392C327.278 139.392 326.258 140.959 325.332 140.024Z" fill="#8F72B4"/>
<path d="M337.329 142.237C337.262 143.117 336.752 143.804 336.175 143.763C335.598 143.721 335.169 142.979 335.236 142.086C335.303 141.193 335.8 140.505 336.39 140.547C336.98 140.588 337.383 141.344 337.329 142.237Z" fill="#8F72B4"/>
<path d="M336.135 140.533L338.081 139.901C338.081 139.901 336.994 141.509 336.135 140.533Z" fill="#8F72B4"/>
<path d="M322.353 135.929C322.228 135.926 322.11 135.877 322.017 135.792C321.929 135.695 321.879 135.567 321.879 135.434C321.879 135.302 321.929 135.174 322.017 135.077C322.718 134.453 323.55 134.004 324.449 133.766C325.348 133.527 326.289 133.506 327.197 133.703C327.26 133.717 327.319 133.744 327.371 133.782C327.424 133.82 327.468 133.868 327.503 133.923C327.537 133.979 327.56 134.041 327.571 134.106C327.582 134.17 327.58 134.237 327.566 134.301C327.552 134.365 327.526 134.425 327.489 134.479C327.452 134.533 327.405 134.578 327.351 134.613C327.297 134.649 327.236 134.672 327.173 134.683C327.11 134.695 327.045 134.693 326.983 134.679C326.238 134.516 325.468 134.528 324.729 134.714C323.99 134.899 323.301 135.254 322.715 135.75C322.671 135.805 322.615 135.849 322.553 135.88C322.49 135.911 322.422 135.928 322.353 135.929Z" fill="#8F72B4"/>
<path d="M338.9 136.245C338.788 136.242 338.68 136.204 338.591 136.135C338.105 135.663 337.519 135.311 336.88 135.106C336.24 134.901 335.563 134.849 334.9 134.953C334.776 134.983 334.645 134.962 334.535 134.896C334.425 134.829 334.345 134.722 334.31 134.596C334.277 134.47 334.294 134.336 334.356 134.223C334.419 134.11 334.523 134.027 334.645 133.991C335.458 133.846 336.292 133.895 337.084 134.133C337.875 134.371 338.602 134.793 339.208 135.366C339.258 135.407 339.299 135.458 339.329 135.516C339.36 135.573 339.379 135.637 339.385 135.702C339.391 135.767 339.385 135.833 339.366 135.895C339.347 135.958 339.316 136.016 339.275 136.067C339.23 136.124 339.173 136.17 339.108 136.201C339.043 136.232 338.971 136.247 338.9 136.245Z" fill="#8F72B4"/>
<path d="M313.321 143.281C313.321 143.281 319.025 134.857 318.877 127.945C318.877 127.945 340.537 121.073 339.665 142.938C339.665 142.938 343.395 123.849 325.319 121.747C307.242 119.644 304.92 146.813 313.576 155.76C313.576 155.746 309.778 148.531 313.321 143.281Z" fill="#8F72B4"/>
<path d="M314.838 145.7C314.843 145.078 314.728 144.46 314.501 143.883C314.273 143.305 313.936 142.78 313.51 142.336C313.084 141.891 312.576 141.538 312.017 141.294C311.457 141.051 310.856 140.923 310.248 140.918C306.947 140.986 304.786 147.707 312.771 150.112C313.912 150.455 314.676 149.342 314.838 145.7Z" fill="#FFDCB4"/>
<path d="M331.747 153.918C330.46 153.983 329.188 153.616 328.124 152.871C327.06 152.127 326.264 151.047 325.855 149.796C325.837 149.735 325.83 149.671 325.835 149.608C325.841 149.545 325.858 149.484 325.887 149.427C325.916 149.371 325.955 149.321 326.002 149.281C326.05 149.24 326.105 149.21 326.164 149.191C326.225 149.172 326.289 149.165 326.352 149.172C326.415 149.178 326.477 149.197 326.533 149.227C326.589 149.258 326.639 149.3 326.679 149.35C326.719 149.4 326.749 149.458 326.768 149.521C327.125 150.608 327.829 151.54 328.766 152.169C329.703 152.797 330.819 153.084 331.935 152.984C332.061 152.976 332.185 153.019 332.28 153.104C332.375 153.189 332.434 153.309 332.445 153.437C332.452 153.566 332.41 153.693 332.327 153.791C332.244 153.889 332.127 153.949 332.002 153.96L331.747 153.918Z" fill="#8F72B4"/>
<path d="M339.503 139.887C339.402 139.886 339.303 139.853 339.221 139.791C339.139 139.729 339.078 139.643 339.047 139.543C334.941 125.801 319.212 127.945 319.065 127.972C319.003 127.981 318.94 127.978 318.88 127.962C318.82 127.946 318.763 127.918 318.713 127.88C318.663 127.842 318.621 127.794 318.589 127.739C318.558 127.684 318.537 127.623 318.528 127.56C318.519 127.497 318.523 127.432 318.538 127.37C318.554 127.309 318.581 127.251 318.618 127.2C318.656 127.149 318.702 127.106 318.756 127.073C318.81 127.04 318.869 127.019 318.931 127.01C319.092 127.01 335.612 124.743 339.96 139.255C339.978 139.316 339.984 139.381 339.978 139.445C339.972 139.508 339.953 139.57 339.923 139.627C339.893 139.683 339.852 139.733 339.803 139.773C339.754 139.813 339.698 139.842 339.638 139.86L339.503 139.887Z" fill="#8F72B4"/>
<path d="M366.786 163.099C366.786 163.099 372.329 163.002 372.517 163.992C372.705 164.981 372.342 173.296 371.604 174.464C370.8 175.52 369.876 176.474 368.853 177.309L369.39 192.041L366.089 193.223L363.096 179.741C363.096 179.741 359.701 176.347 360.694 172.045C361.687 167.744 366.786 163.099 366.786 163.099Z" fill="#FFDCB4"/>
<path opacity="0.1" d="M366.786 163.099C366.786 163.099 372.329 163.002 372.517 163.992C372.705 164.981 372.342 173.296 371.604 174.464C370.8 175.52 369.876 176.474 368.853 177.309L369.39 192.041L366.089 193.223L363.096 179.741C363.096 179.741 359.701 176.347 360.694 172.045C361.687 167.744 366.786 163.099 366.786 163.099Z" fill="#8F72B4"/>
<path d="M357.379 170.355C357.375 170.478 357.396 170.601 357.442 170.715C357.487 170.829 357.556 170.932 357.644 171.016C357.732 171.101 357.836 171.165 357.95 171.205C358.064 171.245 358.185 171.26 358.305 171.248L367.699 170.506C367.961 170.48 368.205 170.359 368.387 170.165C368.569 169.971 368.677 169.716 368.692 169.448L369.363 150.208C369.37 150.076 369.351 149.945 369.308 149.821C369.264 149.697 369.196 149.583 369.108 149.487C369.02 149.391 368.915 149.314 368.797 149.26C368.679 149.207 368.552 149.179 368.424 149.177L359.03 149.919C358.757 149.975 358.51 150.123 358.33 150.34C358.15 150.557 358.046 150.83 358.036 151.115L357.379 170.355Z" fill="#8F72B4"/>
<path opacity="0.5" d="M359.083 150.922L358.466 170.327C358.448 170.442 358.457 170.56 358.491 170.671C358.526 170.781 358.585 170.882 358.665 170.965C358.745 171.048 358.842 171.111 358.95 171.148C359.057 171.185 359.172 171.196 359.285 171.179L367.269 170.547C367.806 170.547 368.773 170.121 368.786 169.571L369.457 150.112C369.457 149.562 368.531 149.205 367.994 149.246L359.942 149.878C359.695 149.906 359.469 150.03 359.309 150.224C359.149 150.419 359.068 150.669 359.083 150.922Z" fill="white"/>
<path d="M347.797 184.95L351.38 176.388C351.38 176.388 352.548 164.913 353.111 163.676C353.675 162.439 362.801 162.906 363.847 162.837C364.894 162.769 364.653 174.216 363.7 175.426C362.747 176.635 359.016 177.597 359.016 177.597L353.286 188.976L347.797 184.95Z" fill="#FFDCB4"/>
<path d="M337.705 180.304C336.739 184.235 333.022 187.258 325.332 187.176C320.972 187.1 316.745 185.619 313.254 182.943C310.475 180.852 308.069 178.286 306.141 175.357C307.255 175.151 308.382 174.972 309.51 174.794C315.462 173.827 321.469 173.244 327.493 173.048C330.673 173.048 334.042 173.145 336.887 173.296C337.884 175.482 338.171 177.939 337.705 180.304Z" fill="#FFDCB4"/>
<path d="M305.296 234.382L303.632 241.831L346.522 239.522L345.287 232.17L305.296 234.382Z" fill="#8F72B4"/>
<path d="M329.667 240.745C329.27 240.747 328.886 240.598 328.591 240.326C328.295 240.054 328.11 239.679 328.07 239.275L327.573 234.52C327.534 234.069 327.669 233.62 327.949 233.269C328.088 233.099 328.26 232.96 328.454 232.861C328.648 232.761 328.86 232.704 329.076 232.692L335.33 232.252C335.751 232.222 336.166 232.361 336.488 232.642C336.809 232.922 337.01 233.32 337.048 233.75L337.477 238.436C337.516 238.877 337.386 239.315 337.115 239.659C336.977 239.828 336.807 239.966 336.616 240.065C336.424 240.164 336.215 240.223 336.001 240.237L329.801 240.745H329.667ZM328.915 234.368L329.398 239.123C329.408 239.195 329.444 239.26 329.499 239.306C329.553 239.352 329.623 239.375 329.693 239.371L335.893 238.876C335.93 238.871 335.966 238.859 335.998 238.84C336.03 238.821 336.059 238.796 336.081 238.766C336.129 238.709 336.153 238.635 336.148 238.56L335.706 233.874C335.704 233.838 335.695 233.803 335.68 233.771C335.665 233.739 335.643 233.711 335.617 233.688C335.59 233.665 335.56 233.647 335.527 233.637C335.493 233.626 335.458 233.623 335.424 233.626L329.17 234.066C329.131 234.065 329.093 234.072 329.058 234.089C329.023 234.106 328.992 234.131 328.969 234.162C328.955 234.195 328.948 234.23 328.948 234.265C328.948 234.301 328.955 234.336 328.969 234.368H328.915Z" fill="white"/>
<path d="M335.652 236.732H333.344C333.166 236.732 332.995 236.66 332.869 236.531C332.743 236.402 332.673 236.227 332.673 236.045C332.676 235.864 332.748 235.691 332.873 235.563C332.998 235.435 333.167 235.361 333.344 235.358H335.652C335.829 235.361 335.997 235.435 336.123 235.563C336.248 235.691 336.32 235.864 336.323 236.045C336.323 236.227 336.252 236.402 336.126 236.531C336.001 236.66 335.83 236.732 335.652 236.732Z" fill="white"/>
<path opacity="0.2" d="M311.214 202.856C307.416 204.231 303.162 201.826 300.277 199.503C299.539 197.112 298.693 194.542 297.727 191.738C297.499 191.079 296.922 189.43 296.224 187.519C295.672 185.995 295.562 184.339 295.907 182.752C296.253 181.165 297.038 179.714 298.17 178.573C305.47 185.623 316.287 201.084 311.214 202.856Z" fill="#8F72B4"/>
<path d="M298.076 177.638C298.837 177.01 299.717 176.549 300.66 176.283C301.603 176.018 302.589 175.954 303.557 176.096C304.525 176.238 305.454 176.582 306.287 177.108C307.119 177.633 307.837 178.328 308.396 179.15C314.287 187.794 324.178 202.169 325.372 202.87C327.077 203.887 339.933 191.752 351.394 176.36L358.412 179.109C358.412 179.109 340.282 217.286 327.412 217.451C317.763 217.575 303.256 197.538 296.667 187.464C295.65 185.946 295.231 184.09 295.492 182.269C295.753 180.447 296.676 178.794 298.076 177.638Z" fill="#FFDCB4"/>
<path opacity="0.2" d="M311.214 247.933C311.214 247.933 307.94 257.044 299.847 260.301V263.572C299.847 263.572 311.711 258.405 313.375 249.829L311.214 247.933Z" fill="#8F72B4"/>
<path opacity="0.2" d="M302.008 295.922L313.375 293.737L316.086 317.127L305.202 318.749L303.632 303.522L313.455 302.093L312.892 296.321L312.731 301.447L301.686 303.261L302.008 295.922Z" fill="#8F72B4"/>
</svg>
